<svg width="19" height="19" viewBox="0 0 19 19" fill="none" xmlns="http://www.w3.org/2000/svg">
<path d="M11.875 9.5C11.875 10.1299 11.6248 10.734 11.1794 11.1794C10.734 11.6248 10.1299 11.875 9.5 11.875C8.87011 11.875 8.26602 11.6248 7.82062 11.1794C7.37522 10.734 7.125 10.1299 7.125 9.5C7.125 8.87011 7.37522 8.26602 7.82062 7.82062C8.26602 7.37522 8.87011 7.125 9.5 7.125C10.1299 7.125 10.734 7.37522 11.1794 7.82062C11.6248 8.26602 11.875 8.87011 11.875 9.5Z" fill="#677687"/>
<path d="M17.3328 9.14604C15.6243 5.72842 12.5907 3.95825 9.50001 3.95825C6.40935 3.95825 3.37568 5.72842 1.66726 9.14604C1.61236 9.25593 1.58377 9.37708 1.58377 9.49992C1.58377 9.62276 1.61236 9.74391 1.66726 9.85379C3.37568 13.2714 6.40935 15.0416 9.50001 15.0416C12.5907 15.0416 15.6243 13.2714 17.3328 9.85379C17.3877 9.74391 17.4163 9.62276 17.4163 9.49992C17.4163 9.37708 17.3877 9.25593 17.3328 9.14604ZM9.50001 13.4583C7.14956 13.4583 4.74843 12.1758 3.2696 9.49992C4.74843 6.82409 7.14876 5.54159 9.50001 5.54159C11.8513 5.54159 14.2516 6.82409 15.7304 9.49992C14.2516 12.1758 11.8505 13.4583 9.50001 13.4583Z" fill="#677687"/>
</svg>
