<svg width="19" height="19" viewBox="0 0 19 19" fill="none" xmlns="http://www.w3.org/2000/svg">
<path d="M13.5332 14.2188L13.4746 14.2793L12.0166 12.7705L11.7959 12.542L11.4951 12.6445C10.8679 12.8589 10.2017 12.9727 9.5 12.9727C6.83485 12.9727 4.53542 11.2991 3.53906 8.8916C3.9212 7.96232 4.4979 7.14201 5.22168 6.48438L5.60254 6.1377L5.24414 5.7666L4.28711 4.77734L4.3457 4.7168L13.5332 14.2188ZM5.38574 6.60254C4.75051 7.16669 4.21992 7.86855 3.83691 8.67383L3.73438 8.88867L3.83594 9.10254C4.35275 10.1936 5.15708 11.1161 6.1582 11.7617C7.09674 12.3669 8.17301 12.7061 9.27832 12.7461L9.5 12.75C9.94177 12.75 10.3815 12.7042 10.7939 12.6094L11.6543 12.4111L11.042 11.7744L9.69434 10.375L9.56934 10.2451L9.38965 10.2256L9.28027 10.208C9.02802 10.1572 8.7927 10.0295 8.60645 9.83691C8.39334 9.61646 8.2574 9.32448 8.22461 9.00879L8.20703 8.83691L8.08691 8.71289L6.07812 6.62891L5.74512 6.2832L5.38574 6.60254ZM9.5 4.80566C12.1656 4.80566 14.4649 6.47954 15.4609 8.8877C15.0616 9.85437 14.4506 10.7081 13.6777 11.3818L13.5371 11.2354C14.2165 10.6498 14.7724 9.92563 15.1631 9.10352L15.2656 8.88965L15.1641 8.6748C14.6473 7.58374 13.8429 6.66223 12.8418 6.0166C11.8406 5.37096 10.6828 5.0272 9.5 5.02734C8.90909 5.02734 8.32934 5.11327 7.7793 5.2666L7.61328 5.09668C8.21072 4.90904 8.84394 4.80566 9.5 4.80566ZM10.2002 7.77539C10.2692 7.82302 10.3346 7.87846 10.3945 7.94043C10.4537 8.00162 10.5065 8.06843 10.5527 8.13965L10.2002 7.77539Z" fill="white" stroke="#677687"/>
</svg>
